<?xml version="1.0" encoding="utf-8"?>
<!-- Generator: Adobe Illustrator 16.0.0, SVG Export Plug-In . SVG Version: 6.00 Build 0)  -->
<!DOCTYPE svg PUBLIC "-//W3C//DTD SVG 1.1//EN" "http://www.w3.org/Graphics/SVG/1.1/DTD/svg11.dtd">
<svg version="1.1" id="Layer_2" xmlns="http://www.w3.org/2000/svg" xmlns:xlink="http://www.w3.org/1999/xlink" x="0px" y="0px"
	 width="50px" height="34px" viewBox="0 0 50 34" enable-background="new 0 0 50 34" xml:space="preserve">
<g>
	<g>
		<path fill-rule="evenodd" clip-rule="evenodd" d="M48,0H2C0.896,0,0,0.896,0,2v2c0,1.105,0.896,2,2,2h46c1.104,0,2-0.895,2-2V2
			C50,0.896,49.104,0,48,0z M48,14H2c-1.104,0-2,0.896-2,2v2c0,1.105,0.896,2,2,2h46c1.104,0,2-0.895,2-2v-2
			C50,14.896,49.104,14,48,14z M48,28H2c-1.104,0-2,0.896-2,2v2c0,1.104,0.896,2,2,2h46c1.104,0,2-0.896,2-2v-2
			C50,28.896,49.104,28,48,28z"/>
	</g>
</g>
</svg>
